<svg width="375" height="141" viewBox="0 0 375 141" fill="none" xmlns="http://www.w3.org/2000/svg">
<g filter="url(#filter0_dd_0_6234)">
<rect y="24" width="375" height="116" fill="white"/>
</g>
<path d="M24.1328 115.545V124H27.3027C29.834 124 31.2812 122.447 31.2812 119.734C31.2812 117.08 29.8164 115.545 27.3027 115.545H24.1328ZM25.6445 116.816H27.1035C28.7617 116.816 29.7402 117.895 29.7402 119.758C29.7402 121.662 28.7852 122.729 27.1035 122.729H25.6445V116.816ZM37.041 122.248C36.8301 122.729 36.332 122.998 35.6113 122.998C34.6562 122.998 34.041 122.318 34.0059 121.234V121.158H38.4824V120.695C38.4824 118.686 37.3867 117.473 35.5586 117.473C33.7012 117.473 32.5469 118.768 32.5469 120.824C32.5469 122.875 33.6836 124.129 35.5703 124.129C37.082 124.129 38.1543 123.402 38.418 122.248H37.041ZM35.5527 118.604C36.4258 118.604 37 119.219 37.0293 120.191H34.0117C34.0762 119.23 34.6855 118.604 35.5527 118.604ZM40.4102 124H41.8574V118.768H43.2344V117.637H41.8398V117.045C41.8398 116.436 42.1094 116.131 42.7949 116.131C43 116.131 43.1758 116.148 43.293 116.166V115.117C43.0586 115.076 42.7949 115.059 42.4844 115.059C41.0605 115.059 40.4102 115.686 40.4102 116.963V117.637H39.3613V118.768H40.4102V124ZM46.2051 124.105C47.043 124.105 47.7461 123.742 48.1035 123.121H48.2031V124H49.6035V119.623C49.6035 118.27 48.6777 117.473 47.0312 117.473C45.5078 117.473 44.4473 118.188 44.3301 119.307H45.7012C45.8359 118.867 46.293 118.627 46.9609 118.627C47.7461 118.627 48.168 118.984 48.168 119.623V120.174L46.5156 120.273C44.957 120.361 44.084 121.035 44.084 122.184C44.084 123.355 44.9688 124.105 46.2051 124.105ZM46.6328 122.986C45.9883 122.986 45.5254 122.664 45.5254 122.113C45.5254 121.58 45.9062 121.281 46.7207 121.229L48.168 121.129V121.65C48.168 122.412 47.5117 122.986 46.6328 122.986ZM56.9336 117.596H55.4805V121.328C55.4805 122.295 54.9648 122.881 54.0215 122.881C53.1543 122.881 52.75 122.4 52.75 121.404V117.596H51.2969V121.756C51.2969 123.256 52.1172 124.129 53.5176 124.129C54.4961 124.129 55.123 123.713 55.4336 122.98H55.5332V124H56.9336V117.596ZM58.7734 124H60.2266V115.117H58.7734V124ZM62.5293 116.025V117.637H61.5156V118.768H62.5293V122.301C62.5293 123.537 63.1152 124.029 64.5859 124.029C64.8672 124.029 65.1367 124.006 65.3477 123.965V122.852C65.1719 122.869 65.0605 122.881 64.8555 122.881C64.2461 122.881 63.9766 122.594 63.9766 121.955V118.768H65.3477V117.637H63.9766V116.025H62.5293Z" fill="#037EE5"/>
<rect x="15" y="41" width="60" height="60" rx="14" fill="white" stroke="#037EE5" stroke-width="2"/>
<path d="M45 98C59.9117 98 72 85.9117 72 71C72 56.0883 59.9117 44 45 44C30.0883 44 18 56.0883 18 71C18 85.9117 30.0883 98 45 98Z" fill="url(#paint0_linear_0_6234)"/>
<path d="M27.4682 72.1503C30.6396 70.4172 34.1797 68.9707 37.4874 67.5168C43.178 65.1355 48.8912 62.7954 54.662 60.6169C55.7848 60.2457 57.8022 59.8827 58 61.5335C57.8916 63.8701 57.446 66.1931 57.1404 68.5162C56.3647 73.6247 55.468 78.7157 54.5937 83.8074C54.2924 85.5034 52.1509 86.3814 50.7807 85.296C47.4877 83.0892 44.1693 80.9039 40.9184 78.6459C39.8534 77.5724 40.8409 76.0306 41.792 75.264C44.5043 72.6122 47.3806 70.3592 49.9511 67.5703C50.6445 65.9091 48.5958 67.3091 47.92 67.7381C44.2069 70.2766 40.5847 72.9702 36.67 75.2012C34.6704 76.2933 32.3397 75.3601 30.341 74.7507C28.5489 74.0145 25.9228 73.2729 27.468 72.1505L27.4682 72.1503Z" fill="white"/>
<path d="M115.434 115.545V124H118.334C120.848 124 122.324 122.436 122.324 119.77C122.324 117.109 120.842 115.545 118.334 115.545H115.434ZM116.488 116.494H118.264C120.139 116.494 121.246 117.713 121.246 119.781C121.246 121.844 120.15 123.051 118.264 123.051H116.488V116.494ZM128.207 122.365C127.943 122.922 127.393 123.221 126.578 123.221C125.506 123.221 124.809 122.43 124.756 121.182V121.135H129.297V120.748C129.297 118.785 128.26 117.572 126.555 117.572C124.82 117.572 123.707 118.861 123.707 120.848C123.707 122.846 124.803 124.111 126.555 124.111C127.938 124.111 128.922 123.443 129.215 122.365H128.207ZM126.543 118.463C127.545 118.463 128.213 119.201 128.236 120.32H124.756C124.832 119.201 125.535 118.463 126.543 118.463ZM131.301 124H132.309V118.527H133.756V117.684H132.309V117.01C132.309 116.318 132.613 115.967 133.34 115.967C133.521 115.967 133.691 115.973 133.814 115.996V115.176C133.604 115.135 133.381 115.117 133.135 115.117C131.934 115.117 131.301 115.721 131.301 116.98V117.684H130.252V118.527H131.301V124ZM136.809 124.111C137.652 124.111 138.344 123.742 138.754 123.068H138.848V124H139.809V119.676C139.809 118.363 138.947 117.572 137.406 117.572C136.059 117.572 135.062 118.24 134.928 119.254H135.947C136.088 118.756 136.615 118.469 137.371 118.469C138.314 118.469 138.801 118.896 138.801 119.676V120.25L136.979 120.361C135.508 120.449 134.676 121.1 134.676 122.23C134.676 123.385 135.584 124.111 136.809 124.111ZM136.996 123.227C136.264 123.227 135.719 122.852 135.719 122.207C135.719 121.574 136.141 121.24 137.102 121.176L138.801 121.064V121.645C138.801 122.547 138.033 123.227 136.996 123.227ZM146.781 117.684H145.773V121.422C145.773 122.529 145.164 123.191 144.051 123.191C143.043 123.191 142.621 122.664 142.621 121.527V117.684H141.613V121.773C141.613 123.268 142.352 124.111 143.77 124.111C144.736 124.111 145.41 123.713 145.727 123.01H145.82V124H146.781V117.684ZM148.738 124H149.746V115.176H148.738V124ZM152.125 116.049V117.684H151.105V118.527H152.125V122.359C152.125 123.566 152.646 124.047 153.947 124.047C154.146 124.047 154.34 124.023 154.539 123.988V123.139C154.352 123.156 154.252 123.162 154.07 123.162C153.414 123.162 153.133 122.846 153.133 122.102V118.527H154.539V117.684H153.133V116.049H152.125ZM159.027 124H160.223L162.479 120.666H162.572L164.787 124H166.053L163.188 119.793L166.117 115.545H164.916L162.654 118.908H162.561L160.334 115.545H159.062L161.922 119.746L159.027 124Z" fill="black"/>
<rect x="109" y="40" width="62" height="62" rx="15" fill="white"/>
<rect x="109.5" y="40.5" width="61" height="61" rx="14.5" stroke="#787880" stroke-opacity="0.2"/>
<path d="M140 98C154.912 98 167 85.9117 167 71C167 56.0883 154.912 44 140 44C125.088 44 113 56.0883 113 71C113 85.9117 125.088 98 140 98Z" fill="url(#paint1_linear_0_6234)"/>
<path d="M122.468 72.1503C125.64 70.4172 129.18 68.9707 132.487 67.5168C138.178 65.1355 143.891 62.7954 149.662 60.6169C150.785 60.2457 152.802 59.8827 153 61.5335C152.892 63.8701 152.446 66.1931 152.14 68.5162C151.365 73.6247 150.468 78.7157 149.594 83.8074C149.292 85.5034 147.151 86.3814 145.781 85.296C142.488 83.0892 139.169 80.9039 135.918 78.6459C134.853 77.5724 135.841 76.0306 136.792 75.264C139.504 72.6122 142.381 70.3592 144.951 67.5703C145.644 65.9091 143.596 67.3091 142.92 67.7381C139.207 70.2766 135.585 72.9702 131.67 75.2012C129.67 76.2933 127.34 75.3601 125.341 74.7507C123.549 74.0145 120.923 73.2729 122.468 72.1505L122.468 72.1503Z" fill="white"/>
<path d="M218.809 124.199C220.607 124.199 221.943 123.197 222.225 121.645H221.152C220.883 122.623 219.986 123.227 218.809 123.227C217.18 123.227 216.16 121.896 216.16 119.775C216.16 117.654 217.18 116.318 218.803 116.318C219.969 116.318 220.871 117.004 221.152 118.094H222.225C221.973 116.465 220.584 115.346 218.803 115.346C216.506 115.346 215.076 117.045 215.076 119.775C215.076 122.5 216.512 124.199 218.809 124.199ZM223.924 124H224.932V115.176H223.924V124ZM228.646 124.111C229.49 124.111 230.182 123.742 230.592 123.068H230.686V124H231.646V119.676C231.646 118.363 230.785 117.572 229.244 117.572C227.896 117.572 226.9 118.24 226.766 119.254H227.785C227.926 118.756 228.453 118.469 229.209 118.469C230.152 118.469 230.639 118.896 230.639 119.676V120.25L228.816 120.361C227.346 120.449 226.514 121.1 226.514 122.23C226.514 123.385 227.422 124.111 228.646 124.111ZM228.834 123.227C228.102 123.227 227.557 122.852 227.557 122.207C227.557 121.574 227.979 121.24 228.939 121.176L230.639 121.064V121.645C230.639 122.547 229.871 123.227 228.834 123.227ZM233.363 119.412C233.363 120.326 233.902 120.836 235.086 121.123L236.17 121.387C236.844 121.551 237.172 121.844 237.172 122.277C237.172 122.857 236.562 123.262 235.713 123.262C234.904 123.262 234.4 122.922 234.23 122.389H233.193C233.305 123.438 234.271 124.111 235.678 124.111C237.113 124.111 238.209 123.332 238.209 122.201C238.209 121.293 237.635 120.777 236.445 120.49L235.473 120.256C234.729 120.074 234.377 119.805 234.377 119.371C234.377 118.809 234.963 118.428 235.713 118.428C236.475 118.428 236.967 118.762 237.102 119.266H238.098C237.963 118.229 237.043 117.572 235.719 117.572C234.377 117.572 233.363 118.363 233.363 119.412ZM239.527 119.412C239.527 120.326 240.066 120.836 241.25 121.123L242.334 121.387C243.008 121.551 243.336 121.844 243.336 122.277C243.336 122.857 242.727 123.262 241.877 123.262C241.068 123.262 240.564 122.922 240.395 122.389H239.357C239.469 123.438 240.436 124.111 241.842 124.111C243.277 124.111 244.373 123.332 244.373 122.201C244.373 121.293 243.799 120.777 242.609 120.49L241.637 120.256C240.893 120.074 240.541 119.805 240.541 119.371C240.541 118.809 241.127 118.428 241.877 118.428C242.639 118.428 243.131 118.762 243.266 119.266H244.262C244.127 118.229 243.207 117.572 241.883 117.572C240.541 117.572 239.527 118.363 239.527 119.412ZM246.482 116.465C246.869 116.465 247.186 116.148 247.186 115.762C247.186 115.375 246.869 115.059 246.482 115.059C246.096 115.059 245.779 115.375 245.779 115.762C245.779 116.148 246.096 116.465 246.482 116.465ZM245.979 124H246.986V117.684H245.979V124ZM254.135 119.617C253.959 118.492 253.021 117.572 251.486 117.572C249.717 117.572 248.592 118.85 248.592 120.818C248.592 122.828 249.723 124.111 251.492 124.111C253.01 124.111 253.953 123.256 254.135 122.096H253.115C252.928 122.811 252.336 123.203 251.486 123.203C250.361 123.203 249.635 122.277 249.635 120.818C249.635 119.389 250.35 118.48 251.486 118.48C252.395 118.48 252.951 118.99 253.115 119.617H254.135Z" fill="black"/>
<rect x="204" y="40" width="62" height="62" rx="15" fill="white"/>
<rect x="204.5" y="40.5" width="61" height="61" rx="14.5" stroke="#787880" stroke-opacity="0.2"/>
<path d="M235 98C249.912 98 262 85.9117 262 71C262 56.0883 249.912 44 235 44C220.088 44 208 56.0883 208 71C208 85.9117 220.088 98 235 98Z" fill="url(#paint2_linear_0_6234)"/>
<path d="M229.843 82.4381C228.958 82.4381 229.108 82.11 228.803 81.2824L226.202 72.8723L246.225 61.2021" fill="#C8DAEA"/>
<path d="M229.843 82.4383C230.505 82.4383 230.797 82.139 231.166 81.7838L234.697 78.3897L230.293 75.7642" fill="#A9C9DD"/>
<path d="M230.331 75.7989L241.124 83.9196C242.356 84.6117 243.244 84.2533 243.551 82.7553L247.944 61.6715C248.394 59.8351 247.257 59.0018 246.079 59.5466L220.281 69.677C218.52 70.3964 218.531 71.3969 219.96 71.8426L226.58 73.947L241.907 64.0999C242.631 63.653 243.295 63.893 242.75 64.3858" fill="url(#paint3_linear_0_6234)"/>
<path d="M308.543 124.199C310.342 124.199 311.678 123.197 311.959 121.645H310.887C310.617 122.623 309.721 123.227 308.543 123.227C306.914 123.227 305.895 121.896 305.895 119.775C305.895 117.654 306.914 116.318 308.537 116.318C309.703 116.318 310.605 117.004 310.887 118.094H311.959C311.707 116.465 310.318 115.346 308.537 115.346C306.24 115.346 304.811 117.045 304.811 119.775C304.811 122.5 306.246 124.199 308.543 124.199ZM313.658 124H314.666V115.176H313.658V124ZM318.381 124.111C319.225 124.111 319.916 123.742 320.326 123.068H320.42V124H321.381V119.676C321.381 118.363 320.52 117.572 318.979 117.572C317.631 117.572 316.635 118.24 316.5 119.254H317.52C317.66 118.756 318.188 118.469 318.943 118.469C319.887 118.469 320.373 118.896 320.373 119.676V120.25L318.551 120.361C317.08 120.449 316.248 121.1 316.248 122.23C316.248 123.385 317.156 124.111 318.381 124.111ZM318.568 123.227C317.836 123.227 317.291 122.852 317.291 122.207C317.291 121.574 317.713 121.24 318.674 121.176L320.373 121.064V121.645C320.373 122.547 319.605 123.227 318.568 123.227ZM323.098 119.412C323.098 120.326 323.637 120.836 324.82 121.123L325.904 121.387C326.578 121.551 326.906 121.844 326.906 122.277C326.906 122.857 326.297 123.262 325.447 123.262C324.639 123.262 324.135 122.922 323.965 122.389H322.928C323.039 123.438 324.006 124.111 325.412 124.111C326.848 124.111 327.943 123.332 327.943 122.201C327.943 121.293 327.369 120.777 326.18 120.49L325.207 120.256C324.463 120.074 324.111 119.805 324.111 119.371C324.111 118.809 324.697 118.428 325.447 118.428C326.209 118.428 326.701 118.762 326.836 119.266H327.832C327.697 118.229 326.777 117.572 325.453 117.572C324.111 117.572 323.098 118.363 323.098 119.412ZM329.262 119.412C329.262 120.326 329.801 120.836 330.984 121.123L332.068 121.387C332.742 121.551 333.07 121.844 333.07 122.277C333.07 122.857 332.461 123.262 331.611 123.262C330.803 123.262 330.299 122.922 330.129 122.389H329.092C329.203 123.438 330.17 124.111 331.576 124.111C333.012 124.111 334.107 123.332 334.107 122.201C334.107 121.293 333.533 120.777 332.344 120.49L331.371 120.256C330.627 120.074 330.275 119.805 330.275 119.371C330.275 118.809 330.861 118.428 331.611 118.428C332.373 118.428 332.865 118.762 333 119.266H333.996C333.861 118.229 332.941 117.572 331.617 117.572C330.275 117.572 329.262 118.363 329.262 119.412ZM336.217 116.465C336.604 116.465 336.92 116.148 336.92 115.762C336.92 115.375 336.604 115.059 336.217 115.059C335.83 115.059 335.514 115.375 335.514 115.762C335.514 116.148 335.83 116.465 336.217 116.465ZM335.713 124H336.721V117.684H335.713V124ZM343.869 119.617C343.693 118.492 342.756 117.572 341.221 117.572C339.451 117.572 338.326 118.85 338.326 120.818C338.326 122.828 339.457 124.111 341.227 124.111C342.744 124.111 343.688 123.256 343.869 122.096H342.85C342.662 122.811 342.07 123.203 341.221 123.203C340.096 123.203 339.369 122.277 339.369 120.818C339.369 119.389 340.084 118.48 341.221 118.48C342.129 118.48 342.686 118.99 342.85 119.617H343.869ZM348.322 124H349.518L351.773 120.666H351.867L354.082 124H355.348L352.482 119.793L355.412 115.545H354.211L351.949 118.908H351.855L349.629 115.545H348.357L351.217 119.746L348.322 124Z" fill="black"/>
<rect x="299" y="40" width="62" height="62" rx="15" fill="white"/>
<rect x="299.5" y="40.5" width="61" height="61" rx="14.5" stroke="#787880" stroke-opacity="0.2"/>
<path d="M330 98C344.912 98 357 85.9117 357 71C357 56.0883 344.912 44 330 44C315.088 44 303 56.0883 303 71C303 85.9117 315.088 98 330 98Z" fill="url(#paint4_linear_0_6234)"/>
<path d="M324.843 82.4381C323.958 82.4381 324.108 82.11 323.803 81.2824L321.202 72.8723L341.225 61.2021" fill="#D2D8DD"/>
<path d="M324.843 82.4383C325.505 82.4383 325.797 82.139 326.166 81.7838L329.697 78.3897L325.293 75.7642" fill="#B2BDC3"/>
<path d="M325.331 75.7989L336.124 83.9196C337.356 84.6117 338.244 84.2533 338.551 82.7553L342.944 61.6715C343.394 59.8351 342.257 59.0018 341.079 59.5466L315.281 69.677C313.52 70.3964 313.531 71.3969 314.96 71.8426L321.58 73.947L336.907 64.0999C337.631 63.653 338.295 63.893 337.75 64.3858" fill="url(#paint5_linear_0_6234)"/>
<path d="M23.6699 13H24.9619L21.3252 3.13574H20.1084L16.4717 13H17.7637L18.7549 10.1768H22.6787L23.6699 13ZM20.6621 4.72852H20.7715L22.3164 9.13086H19.1172L20.6621 4.72852ZM26.5414 3.13574V13H27.7719V9.47949H30.2533C32.1059 9.47949 33.4252 8.17383 33.4252 6.32812C33.4252 4.44824 32.1332 3.13574 30.267 3.13574H26.5414ZM27.7719 4.22949H29.9457C31.3744 4.22949 32.1605 4.97461 32.1605 6.32812C32.1605 7.63379 31.3471 8.38574 29.9457 8.38574H27.7719V4.22949ZM35.2918 3.13574V13H36.5223V9.47949H39.0037C40.8563 9.47949 42.1756 8.17383 42.1756 6.32812C42.1756 4.44824 40.8836 3.13574 39.0174 3.13574H35.2918ZM36.5223 4.22949H38.6961C40.1248 4.22949 40.9109 4.97461 40.9109 6.32812C40.9109 7.63379 40.0975 8.38574 38.6961 8.38574H36.5223V4.22949ZM49.0738 13V3.13574H47.8434V13H49.0738ZM55.4111 13.2324C57.5098 13.2324 59.0684 12.0635 59.3965 10.252H58.1455C57.8311 11.3936 56.7852 12.0977 55.4111 12.0977C53.5107 12.0977 52.3213 10.5459 52.3213 8.07129C52.3213 5.59668 53.5107 4.03809 55.4043 4.03809C56.7646 4.03809 57.8174 4.83789 58.1455 6.10938H59.3965C59.1025 4.20898 57.4824 2.90332 55.4043 2.90332C52.7246 2.90332 51.0566 4.88574 51.0566 8.07129C51.0566 11.25 52.7314 13.2324 55.4111 13.2324ZM65.4535 2.90332C62.6645 2.90332 60.9281 4.89258 60.9281 8.06445C60.9281 11.2227 62.6234 13.2324 65.4535 13.2324C68.2699 13.2324 69.9789 11.2158 69.9789 8.06445C69.9789 4.89941 68.2562 2.90332 65.4535 2.90332ZM65.4535 4.03809C67.4701 4.03809 68.7143 5.59668 68.7143 8.06445C68.7143 10.5117 67.477 12.0977 65.4535 12.0977C63.4027 12.0977 62.1928 10.5117 62.1928 8.06445C62.1928 5.59668 63.4437 4.03809 65.4535 4.03809ZM73.1785 13V5.35059H73.2879L78.6404 13H79.8367V3.13574H78.6199V10.8125H78.5105L73.158 3.13574H71.9617V13H73.1785Z" fill="#636366"/>
<defs>
<filter id="filter0_dd_0_6234" x="0" y="23.67" width="375" height="116.66" filterUnits="userSpaceOnUse" color-interpolation-filters="sRGB">
<feFlood flood-opacity="0" result="BackgroundImageFix"/>
<feColorMatrix in="SourceAlpha" type="matrix" values="0 0 0 0 0 0 0 0 0 0 0 0 0 0 0 0 0 0 127 0" result="hardAlpha"/>
<feOffset dy="-0.33"/>
<feColorMatrix type="matrix" values="0 0 0 0 0.235294 0 0 0 0 0.235294 0 0 0 0 0.262745 0 0 0 0.29 0"/>
<feBlend mode="normal" in2="BackgroundImageFix" result="effect1_dropShadow_0_6234"/>
<feColorMatrix in="SourceAlpha" type="matrix" values="0 0 0 0 0 0 0 0 0 0 0 0 0 0 0 0 0 0 127 0" result="hardAlpha"/>
<feOffset dy="0.33"/>
<feColorMatrix type="matrix" values="0 0 0 0 0.235294 0 0 0 0 0.235294 0 0 0 0 0.262745 0 0 0 0.29 0"/>
<feBlend mode="normal" in2="effect1_dropShadow_0_6234" result="effect2_dropShadow_0_6234"/>
<feBlend mode="normal" in="SourceGraphic" in2="effect2_dropShadow_0_6234" result="shape"/>
</filter>
<linearGradient id="paint0_linear_0_6234" x1="37.4323" y1="19.0019" x2="0.528593" y2="78.6682" gradientUnits="userSpaceOnUse">
<stop stop-color="#34B0DF"/>
<stop offset="1" stop-color="#1E88D3"/>
</linearGradient>
<linearGradient id="paint1_linear_0_6234" x1="133.253" y1="46.2518" x2="119.753" y2="77.75" gradientUnits="userSpaceOnUse">
<stop stop-color="#424D58"/>
<stop offset="1" stop-color="#272A2F"/>
</linearGradient>
<linearGradient id="paint2_linear_0_6234" x1="227.432" y1="19.0019" x2="190.529" y2="78.6682" gradientUnits="userSpaceOnUse">
<stop stop-color="#34B0DF"/>
<stop offset="1" stop-color="#1E88D3"/>
</linearGradient>
<linearGradient id="paint3_linear_0_6234" x1="230.588" y1="71.9682" x2="234.782" y2="85.3055" gradientUnits="userSpaceOnUse">
<stop stop-color="#FEFFFE"/>
<stop offset="1" stop-color="white"/>
</linearGradient>
<linearGradient id="paint4_linear_0_6234" x1="323.253" y1="46.2518" x2="309.753" y2="77.75" gradientUnits="userSpaceOnUse">
<stop stop-color="#424D58"/>
<stop offset="1" stop-color="#272A2F"/>
</linearGradient>
<linearGradient id="paint5_linear_0_6234" x1="325.588" y1="71.9682" x2="329.782" y2="85.3055" gradientUnits="userSpaceOnUse">
<stop stop-color="#FEFFFE"/>
<stop offset="1" stop-color="white"/>
</linearGradient>
</defs>
</svg>
