<svg width="62" height="88" viewBox="0 0 62 88" fill="none" xmlns="http://www.w3.org/2000/svg">
<path d="M9.54297 84.1992C11.3418 84.1992 12.6777 83.1973 12.959 81.6445H11.8867C11.6172 82.623 10.7207 83.2266 9.54297 83.2266C7.91406 83.2266 6.89453 81.8965 6.89453 79.7754C6.89453 77.6543 7.91406 76.3184 9.53711 76.3184C10.7031 76.3184 11.6055 77.0039 11.8867 78.0938H12.959C12.707 76.4648 11.3184 75.3457 9.53711 75.3457C7.24023 75.3457 5.81055 77.0449 5.81055 79.7754C5.81055 82.5 7.24609 84.1992 9.54297 84.1992ZM14.6582 84H15.666V75.1758H14.6582V84ZM19.3809 84.1113C20.2246 84.1113 20.916 83.7422 21.3262 83.0684H21.4199V84H22.3809V79.6758C22.3809 78.3633 21.5195 77.5723 19.9785 77.5723C18.6309 77.5723 17.6348 78.2402 17.5 79.2539H18.5195C18.6602 78.7559 19.1875 78.4688 19.9434 78.4688C20.8867 78.4688 21.373 78.8965 21.373 79.6758V80.25L19.5508 80.3613C18.0801 80.4492 17.248 81.0996 17.248 82.2305C17.248 83.3848 18.1562 84.1113 19.3809 84.1113ZM19.5684 83.2266C18.8359 83.2266 18.291 82.8516 18.291 82.207C18.291 81.5742 18.7129 81.2402 19.6738 81.1758L21.373 81.0645V81.6445C21.373 82.5469 20.6055 83.2266 19.5684 83.2266ZM24.0977 79.4121C24.0977 80.3262 24.6367 80.8359 25.8203 81.123L26.9043 81.3867C27.5781 81.5508 27.9062 81.8438 27.9062 82.2773C27.9062 82.8574 27.2969 83.2617 26.4473 83.2617C25.6387 83.2617 25.1348 82.9219 24.9648 82.3887H23.9277C24.0391 83.4375 25.0059 84.1113 26.4121 84.1113C27.8477 84.1113 28.9434 83.332 28.9434 82.2012C28.9434 81.293 28.3691 80.7773 27.1797 80.4902L26.207 80.2559C25.4629 80.0742 25.1113 79.8047 25.1113 79.3711C25.1113 78.8086 25.6973 78.4277 26.4473 78.4277C27.209 78.4277 27.7012 78.7617 27.8359 79.2656H28.832C28.6973 78.2285 27.7773 77.5723 26.4531 77.5723C25.1113 77.5723 24.0977 78.3633 24.0977 79.4121ZM30.2617 79.4121C30.2617 80.3262 30.8008 80.8359 31.9844 81.123L33.0684 81.3867C33.7422 81.5508 34.0703 81.8438 34.0703 82.2773C34.0703 82.8574 33.4609 83.2617 32.6113 83.2617C31.8027 83.2617 31.2988 82.9219 31.1289 82.3887H30.0918C30.2031 83.4375 31.1699 84.1113 32.5762 84.1113C34.0117 84.1113 35.1074 83.332 35.1074 82.2012C35.1074 81.293 34.5332 80.7773 33.3438 80.4902L32.3711 80.2559C31.627 80.0742 31.2754 79.8047 31.2754 79.3711C31.2754 78.8086 31.8613 78.4277 32.6113 78.4277C33.373 78.4277 33.8652 78.7617 34 79.2656H34.9961C34.8613 78.2285 33.9414 77.5723 32.6172 77.5723C31.2754 77.5723 30.2617 78.3633 30.2617 79.4121ZM37.2168 76.4648C37.6035 76.4648 37.9199 76.1484 37.9199 75.7617C37.9199 75.375 37.6035 75.0586 37.2168 75.0586C36.8301 75.0586 36.5137 75.375 36.5137 75.7617C36.5137 76.1484 36.8301 76.4648 37.2168 76.4648ZM36.7129 84H37.7207V77.6836H36.7129V84ZM44.8691 79.6172C44.6934 78.4922 43.7559 77.5723 42.2207 77.5723C40.4512 77.5723 39.3262 78.8496 39.3262 80.8184C39.3262 82.8281 40.457 84.1113 42.2266 84.1113C43.7441 84.1113 44.6875 83.2559 44.8691 82.0957H43.8496C43.6621 82.8105 43.0703 83.2031 42.2207 83.2031C41.0957 83.2031 40.3691 82.2773 40.3691 80.8184C40.3691 79.3887 41.084 78.4805 42.2207 78.4805C43.1289 78.4805 43.6855 78.9902 43.8496 79.6172H44.8691ZM49.3223 84H50.5176L52.7734 80.666H52.8672L55.082 84H56.3477L53.4824 79.793L56.4121 75.5449H55.2109L52.9492 78.9082H52.8555L50.6289 75.5449H49.3574L52.2168 79.7461L49.3223 84Z" fill="black"/>
<rect width="62" height="62" rx="15" fill="white"/>
<rect x="0.5" y="0.5" width="61" height="61" rx="14.5" stroke="#787880" stroke-opacity="0.2"/>
<path d="M31 58C45.9117 58 58 45.9117 58 31C58 16.0883 45.9117 4 31 4C16.0883 4 4 16.0883 4 31C4 45.9117 16.0883 58 31 58Z" fill="url(#paint0_linear_0_6256)"/>
<path d="M25.8427 42.4381C24.9581 42.4381 25.1085 42.11 24.8034 41.2824L22.2023 32.8723L42.2247 21.2021" fill="#D2D8DD"/>
<path d="M25.8427 42.4383C26.5046 42.4383 26.7969 42.139 27.1665 41.7838L30.6966 38.3897L26.2932 35.7642" fill="#B2BDC3"/>
<path d="M26.3307 35.7989L37.1238 43.9196C38.3555 44.6117 39.2443 44.2533 39.5511 42.7553L43.9445 21.6715C44.3942 19.8351 43.2571 19.0018 42.0787 19.5466L16.2811 29.677C14.5202 30.3964 14.5307 31.3969 15.9602 31.8426L22.5804 33.947L37.907 24.0999C38.6305 23.653 39.2947 23.893 38.7497 24.3858" fill="url(#paint1_linear_0_6256)"/>
<defs>
<linearGradient id="paint0_linear_0_6256" x1="24.2531" y1="6.2518" x2="10.7531" y2="37.75" gradientUnits="userSpaceOnUse">
<stop stop-color="#424D58"/>
<stop offset="1" stop-color="#272A2F"/>
</linearGradient>
<linearGradient id="paint1_linear_0_6256" x1="26.5877" y1="31.9682" x2="30.7815" y2="45.3055" gradientUnits="userSpaceOnUse">
<stop stop-color="#FEFFFE"/>
<stop offset="1" stop-color="white"/>
</linearGradient>
</defs>
</svg>
